<svg xmlns:xlink="http://www.w3.org/1999/xlink" width="13.5" xmlns="http://www.w3.org/2000/svg" height="13.5" id="screenshot-a363528c-838e-806b-8003-88e6bf73ddbd" viewBox="0 0 13.5 13.5" style="-webkit-print-color-adjust: exact;" fill="none" version="1.1"><g id="shape-a363528c-838e-806b-8003-88e6bf73ddbd" rx="0" ry="0"><g id="shape-f892617e-2054-80e7-8003-753f3b0adcac"><g class="fills" id="fills-f892617e-2054-80e7-8003-753f3b0adcac"><path rx="0" ry="0" d="M12.750,7.500L0.750,7.500C0.340,7.500,0.000,7.160,0.000,6.750C0.000,6.340,0.340,6.000,0.750,6.000L12.750,6.000C13.160,6.000,13.500,6.340,13.500,6.750C13.500,7.160,13.160,7.500,12.750,7.500ZZ" style="fill: rgb(95, 107, 124); fill-opacity: 1;"/></g></g><g id="shape-f892617e-2054-80e7-8003-753f3b0adcad"><g class="fills" id="fills-f892617e-2054-80e7-8003-753f3b0adcad"><path rx="0" ry="0" d="M6.750,13.500C6.340,13.500,6.000,13.160,6.000,12.750L6.000,0.750C6.000,0.340,6.340,0.000,6.750,0.000C7.160,0.000,7.500,0.340,7.500,0.750L7.500,12.750C7.500,13.160,7.160,13.500,6.750,13.500ZZ" style="fill: rgb(95, 107, 124); fill-opacity: 1;"/></g></g></g></svg>