<svg xmlns:xlink="http://www.w3.org/1999/xlink" width="24" xmlns="http://www.w3.org/2000/svg" height="24" id="screenshot-c5d75ea7-e480-8008-8003-92d392e84099" viewBox="0 0 24 24" style="-webkit-print-color-adjust: exact;" fill="none" version="1.1"><g id="shape-c5d75ea7-e480-8008-8003-92d392e84099" width="24" height="24" rx="0" ry="0" style="fill: rgb(0, 0, 0);"><g id="shape-c5d75ea7-e480-8008-8003-92d392e8409b"><g class="fills" id="fills-c5d75ea7-e480-8008-8003-92d392e8409b"><path rx="0" ry="0" d="M9.000,1.250C9.410,1.250,9.750,1.590,9.750,2.000L9.750,4.500C9.750,7.390,7.390,9.750,4.500,9.750L2.000,9.750C1.590,9.750,1.250,9.410,1.250,9.000C1.250,8.590,1.590,8.250,2.000,8.250L4.500,8.250C6.570,8.250,8.250,6.570,8.250,4.500L8.250,2.000C8.250,1.590,8.590,1.250,9.000,1.250ZZ" style="fill: rgb(95, 107, 124); fill-opacity: 1;"/></g></g><g id="shape-c5d75ea7-e480-8008-8003-92d392e8409c"><g class="fills" id="fills-c5d75ea7-e480-8008-8003-92d392e8409c"><path rx="0" ry="0" d="M15.000,1.250C15.410,1.250,15.750,1.590,15.750,2.000L15.750,4.500C15.750,6.570,17.430,8.250,19.500,8.250L22.000,8.250C22.410,8.250,22.750,8.590,22.750,9.000C22.750,9.410,22.410,9.750,22.000,9.750L19.500,9.750C16.610,9.750,14.250,7.390,14.250,4.500L14.250,2.000C14.250,1.590,14.590,1.250,15.000,1.250ZZ" style="fill: rgb(95, 107, 124); fill-opacity: 1;"/></g></g><g id="shape-c5d75ea7-e480-8008-8003-92d392e8409d"><g class="fills" id="fills-c5d75ea7-e480-8008-8003-92d392e8409d"><path rx="0" ry="0" d="M20.500,15.250L22.000,15.250C22.410,15.250,22.750,15.590,22.750,16.000C22.750,16.410,22.410,16.750,22.000,16.750L20.500,16.750C18.430,16.750,16.750,18.430,16.750,20.500L16.750,22.000C16.750,22.410,16.410,22.750,16.000,22.750C15.590,22.750,15.250,22.410,15.250,22.000L15.250,20.500C15.250,17.610,17.610,15.250,20.500,15.250ZZ" style="fill: rgb(95, 107, 124); fill-opacity: 1;"/></g></g><g id="shape-c5d75ea7-e480-8008-8003-92d392e8409e"><g class="fills" id="fills-c5d75ea7-e480-8008-8003-92d392e8409e"><path rx="0" ry="0" d="M2.000,14.250L4.500,14.250C7.390,14.250,9.750,16.610,9.750,19.500L9.750,22.000C9.750,22.410,9.410,22.750,9.000,22.750C8.590,22.750,8.250,22.410,8.250,22.000L8.250,19.500C8.250,17.430,6.570,15.750,4.500,15.750L2.000,15.750C1.590,15.750,1.250,15.410,1.250,15.000C1.250,14.590,1.590,14.250,2.000,14.250ZZ" style="fill: rgb(95, 107, 124); fill-opacity: 1;"/></g></g></g></svg>
