<svg xmlns:xlink="http://www.w3.org/1999/xlink" width="24" xmlns="http://www.w3.org/2000/svg" height="24" id="screenshot-f892617e-2054-80e7-8003-753f3b0adc61" viewBox="0 0 24 24" style="-webkit-print-color-adjust: exact;" fill="none" version="1.1"><g id="shape-f892617e-2054-80e7-8003-753f3b0adc61" width="24" height="24" rx="0" ry="0" style="fill: rgb(0, 0, 0);"><g id="shape-f892617e-2054-80e7-8003-753f3b0adc63"><g class="fills" id="fills-f892617e-2054-80e7-8003-753f3b0adc63"><path rx="0" ry="0" d="M2.000,9.750C1.590,9.750,1.250,9.410,1.250,9.000L1.250,6.500C1.250,3.610,3.610,1.250,6.500,1.250L9.000,1.250C9.410,1.250,9.750,1.590,9.750,2.000C9.750,2.410,9.410,2.750,9.000,2.750L6.500,2.750C4.430,2.750,2.750,4.430,2.750,6.500L2.750,9.000C2.750,9.410,2.410,9.750,2.000,9.750ZZ" style="fill: rgb(95, 107, 124); fill-opacity: 1;"/></g></g><g id="shape-f892617e-2054-80e7-8003-753f3b0adc64"><g class="fills" id="fills-f892617e-2054-80e7-8003-753f3b0adc64"><path rx="0" ry="0" d="M22.000,9.750C21.590,9.750,21.250,9.410,21.250,9.000L21.250,6.500C21.250,4.430,19.570,2.750,17.500,2.750L15.000,2.750C14.590,2.750,14.250,2.410,14.250,2.000C14.250,1.590,14.590,1.250,15.000,1.250L17.500,1.250C20.390,1.250,22.750,3.610,22.750,6.500L22.750,9.000C22.750,9.410,22.410,9.750,22.000,9.750ZZ" style="fill: rgb(95, 107, 124); fill-opacity: 1;"/></g></g><g id="shape-f892617e-2054-80e7-8003-753f3b0adc65"><g class="fills" id="fills-f892617e-2054-80e7-8003-753f3b0adc65"><path rx="0" ry="0" d="M17.500,22.750L16.000,22.750C15.590,22.750,15.250,22.410,15.250,22.000C15.250,21.590,15.590,21.250,16.000,21.250L17.500,21.250C19.570,21.250,21.250,19.570,21.250,17.500L21.250,16.000C21.250,15.590,21.590,15.250,22.000,15.250C22.410,15.250,22.750,15.590,22.750,16.000L22.750,17.500C22.750,20.390,20.390,22.750,17.500,22.750ZZ" style="fill: rgb(95, 107, 124); fill-opacity: 1;"/></g></g><g id="shape-f892617e-2054-80e7-8003-753f3b0adc66"><g class="fills" id="fills-f892617e-2054-80e7-8003-753f3b0adc66"><path rx="0" ry="0" d="M9.000,22.750L6.500,22.750C3.610,22.750,1.250,20.390,1.250,17.500L1.250,15.000C1.250,14.590,1.590,14.250,2.000,14.250C2.410,14.250,2.750,14.590,2.750,15.000L2.750,17.500C2.750,19.570,4.430,21.250,6.500,21.250L9.000,21.250C9.410,21.250,9.750,21.590,9.750,22.000C9.750,22.410,9.410,22.750,9.000,22.750ZZ" style="fill: rgb(95, 107, 124); fill-opacity: 1;"/></g></g></g></svg>
